<?xml version="1.0" encoding="UTF-8"?>
<!-- Created with Inkscape (http://www.inkscape.org/) -->
<svg width="32" height="32" version="1.1" viewBox="0 0 8.4667 8.4667" xmlns="http://www.w3.org/2000/svg">
  <g stroke="#000" stroke-linecap="round" stroke-width=".26458">
    <g fill="none">
      <path d="m3.4128 0.45924c0.59297-0.04155 1.2018-0.04072 1.7808 0.09373 0.37873 0.08794 0.76272 0.22345 1.0727 0.45822 0.40147 0.30411 0.68345 0.74803 0.94768 1.1768 0.17605 0.28567 0.29014 0.60561 0.41656 0.91644 0.11956 0.29396 0.25022 0.58669 0.32284 0.89561 0.06877 0.29258 0.10118 0.59508 0.10414 0.89561 0.0028 0.28944-0.02544 0.58076-0.08331 0.86437-0.05751 0.28184-0.14421 0.55956-0.26035 0.82272-0.09232 0.20917-0.20516 0.41169-0.34367 0.5936-0.17101 0.2246-0.35249 0.45721-0.5936 0.60402-0.17068 0.10393-0.37737 0.13519-0.57278 0.17704-0.19493 0.04175-0.39432 0.06766-0.5936 0.0729-0.29916 0.0079-0.59952-0.01903-0.89561-0.06249-0.35912-0.0527-0.71551-0.13217-1.0622-0.23952-0.34976-0.1083-0.7049-0.22066-1.0206-0.40615-0.20848-0.1225-0.39594-0.2828-0.56236-0.45822-0.23081-0.24329-0.4117-0.53056-0.5936-0.8123-0.19478-0.30168-0.37927-0.61186-0.53112-0.93727-0.15514-0.33247-0.28749-0.6774-0.38532-1.031-0.07153-0.25855-0.13094-0.52362-0.1458-0.79147-0.0135-0.24324 0.0026-0.49045 0.05207-0.72899 0.05532-0.2666 0.12664-0.53964 0.27077-0.77064 0.17022-0.27282 0.4188-0.49554 0.67692-0.68733 0.23307-0.17318 0.49677-0.30965 0.77064-0.40615 0.39361-0.13869 0.81256-0.21035 1.2289-0.23952z" fill="#fff" stroke="#000" stroke-width=".265" style="paint-order:markers fill stroke"/>
      <path d="m1.9653 3.3908s0.08187 0.20031 0.151 0.28118c0.08211 0.09605 0.19079 0.16914 0.30201 0.22911 0.10534 0.0568 0.2207 0.09845 0.33846 0.11976 0.38093 0.06893 0.77406 0.02253 1.1612 0.02083 0.32468-0.0014 0.64955-0.0077 0.97372-0.02604 0.1809-0.01024 0.36186-0.02348 0.54153-0.04686 0.23062-0.03001 0.45746-0.08449 0.68733-0.11976 0.19556-0.03001 0.39116-0.0625 0.5884-0.07811 0.13328-0.01055 0.2693-0.03372 0.40094-0.01041 0.07903 0.01399 0.15578 0.04608 0.2239 0.08852 0.0219 0.01364 0.05075 0.02711 0.05728 0.05207 0.0083 0.03186-0.01254 0.06662-0.03124 0.09373-0.09035 0.13099-0.26606 0.18127-0.3697 0.30201-0.05119 0.05963-0.09375 0.12892-0.11976 0.20308-0.02844 0.08107-0.02633 0.16983-0.03645 0.25514-0.0152 0.12812-0.01691 0.2578-0.03645 0.38532-0.02903 0.18945-0.06087 0.37998-0.11976 0.56236-0.06352 0.19672-0.14064 0.39211-0.24994 0.56757-0.07556 0.12129-0.16183 0.24208-0.27597 0.32804-0.09868 0.07432-0.2185 0.12147-0.33846 0.151-0.08266 0.02035-0.16857 0.03276-0.25434 0.03474-0.05265 0.0012-0.10603 0.0028-0.15702-0.0087-0.12221-0.02756-0.21544-0.05991-0.34582-0.10688-0.16568-0.05969-0.31756-0.10713-0.45086-0.20555-0.11118-0.08209-0.16107-0.0974-0.22911-0.16142-0.04047-0.03808-0.10414-0.13018-0.10414-0.13018" style="paint-order:stroke fill markers"/>
      <path d="m1.2235 2.2214s0.26782-0.18327 0.39756-0.28063c0.13754-0.10322 0.27617-0.20589 0.40341-0.32156 0.1183-0.10754 0.22864-0.22404 0.33325-0.34494 0.08545-0.09875 0.14937-0.21557 0.23971-0.30987 0.07941-0.08288 0.16363-0.16487 0.26309-0.22217 0.12018-0.06923 0.25528-0.1154 0.39172-0.14032 0.11121-0.02031 0.22646-0.0155 0.3391-0.0058 0.16604 0.01423 0.32955 0.05267 0.49111 0.09354 0.24976 0.06319 0.48774 0.16745 0.73666 0.23386 0.17728 0.0473 0.35671 0.08793 0.53788 0.11693 0.20508 0.03283 0.41313 0.04311 0.61973 0.06431 0.15203 0.0156 0.45613 0.04629 0.45613 0.04629" style="paint-order:stroke fill markers"/>
      <path d="m2.4837 1.6568c0.11452-0.0576 0.2216-0.13288 0.34313-0.17363 0.09559-0.03205 0.19684-0.05306 0.29766-0.05374 0.11735-7.94e-4 0.2362 0.02 0.34727 0.05788 0.10212 0.03483 0.20263 0.08358 0.28525 0.15296 0.05637 0.04733 0.11311 0.10382 0.13642 0.17363 0.02052 0.06145 0.01496 0.1324-0.0041 0.1943-0.02084 0.06757-0.06751 0.12607-0.11576 0.17777-0.07184 0.07697-0.1611 0.13736-0.25218 0.19017-0.1271 0.07371-0.26815 0.12053-0.40514 0.17363-0.12516 0.04852-0.2486 0.10656-0.38034 0.13229-0.13272 0.02592-0.27068 0.03502-0.40514 0.02067-0.08941-0.0095-0.18311-0.02441-0.26045-0.07028-0.07712-0.04574-0.14367-0.11528-0.18604-0.1943-0.0387-0.07219-0.06334-0.15843-0.05374-0.23978 0.0088-0.07467 0.05179-0.14423 0.09922-0.20257 0.05947-0.07315 0.14349-0.12337 0.22324-0.17363 0.10428-0.06572 0.22062-0.10998 0.33073-0.16536z" style="paint-order:stroke fill markers"/>
      <path d="m5.2949 1.3757c-0.10825 0.03413-0.2023 0.10381-0.29766 0.16536-0.05627 0.03632-0.11203 0.07445-0.16123 0.11989-0.04305 0.03975-0.08875 0.08029-0.11576 0.13229-0.0268 0.05161-0.03511 0.11168-0.04134 0.1695-0.0061 0.05619-0.0064 0.11397 0.0041 0.1695 0.01421 0.07496 0.03834 0.15014 0.07855 0.21497 0.04007 0.06462 0.0937 0.12339 0.1571 0.16536 0.06872 0.0455 0.1519 0.06547 0.23151 0.08682 0.09716 0.02605 0.19752 0.04008 0.29766 0.04961 0.11115 0.01058 0.22327 0.012 0.33486 0.0083 0.15075-5e-3 0.30202-0.01547 0.45062-0.04134 0.1192-0.02075 0.24558-0.03229 0.3514-0.09095 0.06479-0.03592 0.12184-0.09022 0.16123-0.15296 0.03847-0.06127 0.05499-0.13523 0.06615-0.2067 0.0102-0.06536 0.01704-0.13452 0-0.19844-0.0221-0.08291-0.07468-0.15614-0.12816-0.22324-0.06199-0.07779-0.14674-0.13434-0.21911-0.20257-0.0561-0.05289-0.09667-0.12814-0.16674-0.16031-0.09519-0.04371-0.2069-0.03076-0.31282-0.02986-0.09866 8.44e-4 -0.20426-0.0076-0.29553-0.01633-0.14159-0.01355-0.26866 0.0013-0.39487 0.04113z" style="paint-order:stroke fill markers"/>
    </g>
    <path d="m5.7224 1.3474c-0.10791 0.0055-0.21692 0.01398-0.32156 0.04093-0.05888 0.01516-0.12744 0.02337-0.16955 0.06723-0.0143 0.0149-0.01861 0.0379-0.02046 0.05846-0.0051 0.056 0.01146 0.11239 0.02631 0.16663 0.01883 0.06876 0.03072 0.14626 0.07893 0.19878 0.05599 0.061 0.14159 0.09206 0.22217 0.11108 0.0863 0.02037 0.17871 0.0155 0.26602 0 0.09197-0.01633 0.1872-0.04202 0.26309-0.09647 0.04167-0.02989 0.07827-0.0719 0.09647-0.11985 0.01453-0.03831 0.0069-0.08182 0.0058-0.12278-0.0012-0.04992 0.0059-0.10356-0.01462-0.14909-0.02293-0.05093-0.06453-0.09688-0.11401-0.12278-0.06105-0.03195-0.13597-0.02347-0.20463-0.02923-0.03788-0.0032-0.07604-0.0048-0.11401-0.0029z" fill-rule="evenodd" style="paint-order:stroke fill markers"/>
    <path d="m2.4834 1.6602c0.0742-0.03578 0.14176-0.08605 0.21924-0.11401 0.0347-0.01252 0.0717-0.02901 0.10816-0.02339 0.03106 0.0048 0.05949 0.02469 0.08185 0.04677 0.02735 0.02701 0.04281 0.06428 0.05846 0.09939 0.01707 0.03828 0.03007 0.0787 0.038 0.11985 5e-3 0.0259 0.0085 0.05268 0.0058 0.07893-0.0032 0.03223-0.0091 0.06609-0.02631 0.09354-0.01867 0.02984-0.04945 0.05092-0.07893 0.07016-0.04309 0.02812-0.09231 0.04581-0.14032 0.06431-0.03623 0.01396-0.07277 0.02874-0.11108 0.03508-0.04327 0.0072-0.08792 0.0074-0.13155 0.0029-0.05173-0.0053-0.10351-0.01632-0.15201-0.03508-0.04273-0.01652-0.0853-0.03717-0.11985-0.06724-0.02308-0.02009-0.03973-0.04689-0.05554-0.07308-0.01668-0.02761-0.04295-0.0555-0.04093-0.0877 0.0019-0.03103 0.0262-0.05857 0.0497-0.07893 0.08143-0.07056 0.1982-0.08475 0.29525-0.13155z" fill-rule="evenodd" style="paint-order:stroke fill markers"/>
  </g>
</svg>
