<?xml version="1.0" encoding="UTF-8"?>
<!-- Created with Inkscape (http://www.inkscape.org/) -->
<svg width="512" height="256" version="1.1" viewBox="0 0 512 256" xmlns="http://www.w3.org/2000/svg">
  <g fill-opacity="0" stroke="#000">
    <g transform="matrix(3 0 0 3 4.5753 5.5375)" stroke-linejoin="round">
      <g stroke-linecap="round" stroke-width="3.5">
        <path d="m37.06 29.32c2.7721 1.5283 5.9538 2.902 9.6949 4.8194 0.73677 0.37761 1.6468 0.09848 2.0695-0.61665 0.9734-1.647 1.9914-3.0709 3.0701-4.1915 0.7512-0.78038 2.2896-0.98917 3.3181-0.64549 2.2428 0.74948 4.7289 1.492 7.0646 2.7794 0.52574 0.2898 1.3659 0.32214 1.8835 0.01672 2.5919-1.5294 4.4848-3.1843 6.7074-4.9582"/>
        <path d="m70.251 25.098 7.119 16.998a0.68401 0.68401 3.9339 0 0 1.2197 0.08388l6.1534-10.408a17.826 17.826 109.5 0 0 2.2899-6.4681l0.61447-4.1614"/>
        <path d="m86 19.125c7.633 8.7357 10.267 19.773 21.199 24.44"/>
        <path d="m108.36 36.681c1.0154 5.6983-2.7712 9.0326-5.2145 13.028-0.25344 0.41446-0.0983 0.95257 0.32031 1.1996 1.5064 0.88904 2.8665 1.8329 3.8763 2.9082 0.63532 0.67657 1.0634 2.0915 1.0274 3.0205-0.31156 8.0499-5.751 13.262-10.452 18.925-0.4365 0.52589-0.24915 0.81002 0.40946 0.62671 2.8574-0.79529 5.9398-1.6601 8.6299-2.3696 0.72285-0.19064 1.6284 0.17841 2.1062 0.7527 0.94853 1.1399 2.1098 2.0665 3.3624 2.9579 0.77154 0.54908 2.1321 0.71392 3.0058 0.34792 2.2332-0.93559 4.5271-2.1549 6.4895-3.7986 0.90398-0.75717 2.5048-1.513 3.6806-1.6108 10.29-0.85623 21.799-4.2746 29.787-9.0811 0.58752-0.35352 0.66916-1.0569 0.1748-1.532-5.1544-4.954-12.7-9.324-17.734-15.582-1.7682-2.1983-3.8658-6.2979-5.1726-8.8035-3.8288-7.3415-8.1362-14.918-14.875-19.588-1.1015-0.76346-3.0857-1.639-4.3709-2.0212-17.998-5.3528-37.172-3.1648-55.577-1.9216-1.5316 0.10346-4.0177 0.13664-5.5495 0.03487-17.54-1.1654-27.694-6.7108-37.967-10.849-0.19773-0.079645-0.28709 0.013933-0.19851 0.208 3.1775 6.9617 7.1639 13.654 11.241 20.315 0.24442 0.39932 0.26474 1.0586 0.01854 1.4568-3.0956 5.0076-8.7802 7.3464-13.392 9.8022-0.35962 0.19149-0.35598 0.50355 0.0083 0.6865 3.8653 1.9414 8.3414 3.6518 11.504 6.0666 0.3701 0.28259 0.50784 0.87604 0.32763 1.3062-2.0119 4.8023-3.7589 9.8583-6.2886 14.531-0.25152 0.46454-0.04594 0.93895 0.47926 0.99558 3.3531 0.36156 5.8812-1.5608 9.3344-2.7242 0.6765-0.22792 1.1862 0.20786 1.1243 0.9194-0.31059 3.5752-0.55058 7.1681-0.4315 10.851 0.02308 0.71375 0.60026 1.0909 1.2546 0.80478 3.1398-1.3731 7.0538-3.7563 9.9682-5.5996 0.32437-0.20515 0.57016-0.06135 0.53054 0.32045-0.30406 2.93-1.4502 6.8697-1.2836 9.8805 0.03269 0.59074 0.58735 0.93385 1.1476 0.74205 3.8898-1.3316 8.0545-3.9241 11.125-5.9312"/>
      </g>
      <path d="m41.663 31.641c-27.325 50.467 39.485 34.727 63.298 35.299" stroke-width="5"/>
    </g>
    <g stroke-linecap="round">
      <g transform="matrix(3 0 0 3 4.5753 5.5375)" stroke-width="8.5">
        <path d="m63.094 39.382v16.318"/>
        <path d="m95.978 39.382v16.318"/>
      </g>
      <path d="m224.66 179.15c13.156 16.827 26.913 16.967 38.648 0.1326" stroke-linejoin="round" stroke-width="10.5"/>
      <g transform="matrix(3 0 0 3 4.5753 5.5375)" stroke-linejoin="round" stroke-width="2.75">
        <path d="m45.781 56.344c-0.32175 1.2421-0.43663 2.092-0.34375 3.5"/>
        <path d="m49.406 56.375c-0.40718 1.3608-0.43317 2.2862-0.34375 3.8125"/>
        <path d="m53.219 56.281c-0.28776 1.4082-0.35732 2.2693-0.3125 3.8438"/>
        <path d="m104.06 57.375 0.0312 3.0625"/>
      </g>
      <g transform="matrix(3 0 0 3 -3.546 5.5375)" stroke-linejoin="round" stroke-width="6">
        <path d="m118.88 34.471 22.937 22.937"/>
        <path d="m141.82 34.471-22.937 22.937"/>
      </g>
    </g>
  </g>
</svg>
